<mxfile host="app.diagrams.net" agent="Mozilla/5.0 (Windows NT 10.0; Win64; x64) AppleWebKit/537.36 (KHTML, like Gecko) Chrome/141.0.0.0 Safari/537.36" version="28.2.5">
  <diagram name="Page-1" id="j-14q8eQJr_2WvfQb286">
    <mxGraphModel dx="2377" dy="2464" grid="1" gridSize="10" guides="1" tooltips="1" connect="1" arrows="1" fold="1" page="1" pageScale="1" pageWidth="827" pageHeight="1169" math="0" shadow="0">
      <root>
        <mxCell id="0" />
        <mxCell id="1" parent="0" />
        <mxCell id="FqdjsurXtCNkKY9dXEvq-1" value="" style="rounded=0;whiteSpace=wrap;html=1;" parent="1" vertex="1">
          <mxGeometry x="40" y="-440.5" width="1700" height="1930" as="geometry" />
        </mxCell>
        <mxCell id="FqdjsurXtCNkKY9dXEvq-2" value="Availability Zone" style="fillColor=none;strokeColor=#147EBA;dashed=1;verticalAlign=top;fontStyle=0;fontColor=#147EBA;whiteSpace=wrap;html=1;movable=1;resizable=1;rotatable=1;deletable=1;editable=1;locked=0;connectable=1;" parent="1" vertex="1">
          <mxGeometry x="269" y="391" width="200" height="400" as="geometry" />
        </mxCell>
        <mxCell id="FqdjsurXtCNkKY9dXEvq-3" value="Public subnet" style="points=[[0,0],[0.25,0],[0.5,0],[0.75,0],[1,0],[1,0.25],[1,0.5],[1,0.75],[1,1],[0.75,1],[0.5,1],[0.25,1],[0,1],[0,0.75],[0,0.5],[0,0.25]];outlineConnect=0;gradientColor=none;html=1;whiteSpace=wrap;fontSize=12;fontStyle=0;container=1;pointerEvents=0;collapsible=0;recursiveResize=0;shape=mxgraph.aws4.group;grIcon=mxgraph.aws4.group_security_group;grStroke=0;strokeColor=#7AA116;fillColor=#F2F6E8;verticalAlign=top;align=left;spacingLeft=30;fontColor=#248814;dashed=0;" parent="1" vertex="1">
          <mxGeometry x="290" y="430" width="150" height="160" as="geometry" />
        </mxCell>
        <mxCell id="FqdjsurXtCNkKY9dXEvq-4" value="" style="aspect=fixed;pointerEvents=1;shadow=0;dashed=0;html=1;strokeColor=none;labelPosition=center;verticalLabelPosition=bottom;verticalAlign=top;align=center;fillColor=#00188D;shape=mxgraph.mscae.enterprise.application;" parent="FqdjsurXtCNkKY9dXEvq-3" vertex="1">
          <mxGeometry x="10" y="40" width="50" height="34" as="geometry" />
        </mxCell>
        <mxCell id="FqdjsurXtCNkKY9dXEvq-5" value="" style="shape=mxgraph.ibm.box;prType=vpc;fontStyle=0;verticalAlign=top;align=left;spacingLeft=32;spacingTop=4;fillColor=none;rounded=0;whiteSpace=wrap;html=1;strokeColor=#4376BB;strokeWidth=2;dashed=0;container=0;spacing=-4;collapsible=0;expand=0;recursiveResize=0;" parent="1" vertex="1">
          <mxGeometry x="218.46" y="350" width="531.54" height="480" as="geometry" />
        </mxCell>
        <mxCell id="FqdjsurXtCNkKY9dXEvq-6" value="AWS Cloud" style="points=[[0,0],[0.25,0],[0.5,0],[0.75,0],[1,0],[1,0.25],[1,0.5],[1,0.75],[1,1],[0.75,1],[0.5,1],[0.25,1],[0,1],[0,0.75],[0,0.5],[0,0.25]];outlineConnect=0;gradientColor=none;html=1;whiteSpace=wrap;fontSize=12;fontStyle=0;container=1;pointerEvents=0;collapsible=0;recursiveResize=0;shape=mxgraph.aws4.group;grIcon=mxgraph.aws4.group_aws_cloud_alt;strokeColor=#232F3E;fillColor=none;verticalAlign=top;align=left;spacingLeft=30;fontColor=#232F3E;dashed=0;" parent="1" vertex="1">
          <mxGeometry x="110" y="90" width="1550" height="860" as="geometry" />
        </mxCell>
        <mxCell id="FqdjsurXtCNkKY9dXEvq-7" value="AWS Account" style="points=[[0,0],[0.25,0],[0.5,0],[0.75,0],[1,0],[1,0.25],[1,0.5],[1,0.75],[1,1],[0.75,1],[0.5,1],[0.25,1],[0,1],[0,0.75],[0,0.5],[0,0.25]];outlineConnect=0;gradientColor=none;html=1;whiteSpace=wrap;fontSize=12;fontStyle=0;container=0;pointerEvents=0;collapsible=0;recursiveResize=0;shape=mxgraph.aws4.group;grIcon=mxgraph.aws4.group_account;strokeColor=#CD2264;fillColor=none;verticalAlign=top;align=left;spacingLeft=30;fontColor=#CD2264;dashed=0;" parent="1" vertex="1">
          <mxGeometry x="150" y="130" width="1440" height="789" as="geometry" />
        </mxCell>
        <mxCell id="FqdjsurXtCNkKY9dXEvq-8" value="Private subnet" style="points=[[0,0],[0.25,0],[0.5,0],[0.75,0],[1,0],[1,0.25],[1,0.5],[1,0.75],[1,1],[0.75,1],[0.5,1],[0.25,1],[0,1],[0,0.75],[0,0.5],[0,0.25]];outlineConnect=0;gradientColor=none;html=1;whiteSpace=wrap;fontSize=12;fontStyle=0;container=1;pointerEvents=0;collapsible=0;recursiveResize=0;shape=mxgraph.aws4.group;grIcon=mxgraph.aws4.group_security_group;grStroke=0;strokeColor=#00A4A6;fillColor=#E6F6F7;verticalAlign=top;align=left;spacingLeft=30;fontColor=#147EBA;dashed=0;" parent="1" vertex="1">
          <mxGeometry x="290" y="621" width="149" height="150" as="geometry" />
        </mxCell>
        <mxCell id="FqdjsurXtCNkKY9dXEvq-9" value="" style="image;aspect=fixed;perimeter=ellipsePerimeter;html=1;align=center;shadow=0;dashed=0;spacingTop=3;image=img/lib/active_directory/database.svg;" parent="FqdjsurXtCNkKY9dXEvq-8" vertex="1">
          <mxGeometry x="49.5" y="39" width="50" height="37" as="geometry" />
        </mxCell>
        <mxCell id="FqdjsurXtCNkKY9dXEvq-10" value="Availability Zone" style="fillColor=none;strokeColor=#147EBA;dashed=1;verticalAlign=top;fontStyle=0;fontColor=#147EBA;whiteSpace=wrap;html=1;movable=1;resizable=1;rotatable=1;deletable=1;editable=1;locked=0;connectable=1;" parent="1" vertex="1">
          <mxGeometry x="510" y="391" width="200" height="400" as="geometry" />
        </mxCell>
        <mxCell id="FqdjsurXtCNkKY9dXEvq-11" value="Private subnet" style="points=[[0,0],[0.25,0],[0.5,0],[0.75,0],[1,0],[1,0.25],[1,0.5],[1,0.75],[1,1],[0.75,1],[0.5,1],[0.25,1],[0,1],[0,0.75],[0,0.5],[0,0.25]];outlineConnect=0;gradientColor=none;html=1;whiteSpace=wrap;fontSize=12;fontStyle=0;container=1;pointerEvents=0;collapsible=0;recursiveResize=0;shape=mxgraph.aws4.group;grIcon=mxgraph.aws4.group_security_group;grStroke=0;strokeColor=#00A4A6;fillColor=#E6F6F7;verticalAlign=top;align=left;spacingLeft=30;fontColor=#147EBA;dashed=0;" parent="1" vertex="1">
          <mxGeometry x="530" y="621" width="149" height="150" as="geometry" />
        </mxCell>
        <mxCell id="FqdjsurXtCNkKY9dXEvq-12" value="" style="image;aspect=fixed;perimeter=ellipsePerimeter;html=1;align=center;shadow=0;dashed=0;spacingTop=3;image=img/lib/active_directory/database.svg;" parent="1" vertex="1">
          <mxGeometry x="579.5" y="670" width="50" height="37" as="geometry" />
        </mxCell>
        <mxCell id="FqdjsurXtCNkKY9dXEvq-13" value="Public subnet" style="points=[[0,0],[0.25,0],[0.5,0],[0.75,0],[1,0],[1,0.25],[1,0.5],[1,0.75],[1,1],[0.75,1],[0.5,1],[0.25,1],[0,1],[0,0.75],[0,0.5],[0,0.25]];outlineConnect=0;gradientColor=none;html=1;whiteSpace=wrap;fontSize=12;fontStyle=0;container=1;pointerEvents=0;collapsible=0;recursiveResize=0;shape=mxgraph.aws4.group;grIcon=mxgraph.aws4.group_security_group;grStroke=0;strokeColor=#7AA116;fillColor=#F2F6E8;verticalAlign=top;align=left;spacingLeft=30;fontColor=#248814;dashed=0;" parent="1" vertex="1">
          <mxGeometry x="530" y="430" width="150" height="160" as="geometry" />
        </mxCell>
        <mxCell id="FqdjsurXtCNkKY9dXEvq-14" value="" style="image;aspect=fixed;html=1;points=[];align=center;fontSize=12;image=img/lib/azure2/compute/Azure_Spring_Cloud.svg;" parent="1" vertex="1">
          <mxGeometry x="570.5" y="470" width="68" height="68" as="geometry" />
        </mxCell>
        <mxCell id="FqdjsurXtCNkKY9dXEvq-15" value="" style="aspect=fixed;pointerEvents=1;shadow=0;dashed=0;html=1;strokeColor=none;labelPosition=center;verticalLabelPosition=bottom;verticalAlign=top;align=center;fillColor=#00188D;shape=mxgraph.mscae.enterprise.application;" parent="1" vertex="1">
          <mxGeometry x="370" y="520" width="50" height="34" as="geometry" />
        </mxCell>
        <mxCell id="FqdjsurXtCNkKY9dXEvq-16" value="Region" style="shape=mxgraph.ibm.box;prType=region;fontStyle=0;verticalAlign=top;align=left;spacingLeft=32;spacingTop=4;fillColor=none;rounded=0;whiteSpace=wrap;html=1;strokeColor=#919191;strokeWidth=2;dashed=0;container=0;spacing=-4;collapsible=0;expand=0;recursiveResize=0;movable=1;resizable=1;rotatable=1;deletable=1;editable=1;locked=0;connectable=1;" parent="1" vertex="1">
          <mxGeometry x="910" y="230" width="598.46" height="639" as="geometry" />
        </mxCell>
        <mxCell id="FqdjsurXtCNkKY9dXEvq-17" value="Availability Zone" style="fillColor=none;strokeColor=#147EBA;dashed=1;verticalAlign=top;fontStyle=0;fontColor=#147EBA;whiteSpace=wrap;html=1;movable=1;resizable=1;rotatable=1;deletable=1;editable=1;locked=0;connectable=1;" parent="1" vertex="1">
          <mxGeometry x="1009.54" y="391" width="200" height="400" as="geometry" />
        </mxCell>
        <mxCell id="FqdjsurXtCNkKY9dXEvq-18" value="Public subnet" style="points=[[0,0],[0.25,0],[0.5,0],[0.75,0],[1,0],[1,0.25],[1,0.5],[1,0.75],[1,1],[0.75,1],[0.5,1],[0.25,1],[0,1],[0,0.75],[0,0.5],[0,0.25]];outlineConnect=0;gradientColor=none;html=1;whiteSpace=wrap;fontSize=12;fontStyle=0;container=1;pointerEvents=0;collapsible=0;recursiveResize=0;shape=mxgraph.aws4.group;grIcon=mxgraph.aws4.group_security_group;grStroke=0;strokeColor=#7AA116;fillColor=#F2F6E8;verticalAlign=top;align=left;spacingLeft=30;fontColor=#248814;dashed=0;" parent="1" vertex="1">
          <mxGeometry x="1030.54" y="430" width="150" height="160" as="geometry" />
        </mxCell>
        <mxCell id="FqdjsurXtCNkKY9dXEvq-19" value="" style="aspect=fixed;pointerEvents=1;shadow=0;dashed=0;html=1;strokeColor=none;labelPosition=center;verticalLabelPosition=bottom;verticalAlign=top;align=center;fillColor=#00188D;shape=mxgraph.mscae.enterprise.application;" parent="FqdjsurXtCNkKY9dXEvq-18" vertex="1">
          <mxGeometry x="10" y="40" width="50" height="34" as="geometry" />
        </mxCell>
        <mxCell id="FqdjsurXtCNkKY9dXEvq-20" value="" style="shape=mxgraph.ibm.box;prType=vpc;fontStyle=0;verticalAlign=top;align=left;spacingLeft=32;spacingTop=4;fillColor=none;rounded=0;whiteSpace=wrap;html=1;strokeColor=#4376BB;strokeWidth=2;dashed=0;container=0;spacing=-4;collapsible=0;expand=0;recursiveResize=0;" parent="1" vertex="1">
          <mxGeometry x="959" y="350" width="531.54" height="480" as="geometry" />
        </mxCell>
        <mxCell id="FqdjsurXtCNkKY9dXEvq-21" value="Private subnet" style="points=[[0,0],[0.25,0],[0.5,0],[0.75,0],[1,0],[1,0.25],[1,0.5],[1,0.75],[1,1],[0.75,1],[0.5,1],[0.25,1],[0,1],[0,0.75],[0,0.5],[0,0.25]];outlineConnect=0;gradientColor=none;html=1;whiteSpace=wrap;fontSize=12;fontStyle=0;container=1;pointerEvents=0;collapsible=0;recursiveResize=0;shape=mxgraph.aws4.group;grIcon=mxgraph.aws4.group_security_group;grStroke=0;strokeColor=#00A4A6;fillColor=#E6F6F7;verticalAlign=top;align=left;spacingLeft=30;fontColor=#147EBA;dashed=0;" parent="1" vertex="1">
          <mxGeometry x="1030.54" y="621" width="149" height="150" as="geometry" />
        </mxCell>
        <mxCell id="FqdjsurXtCNkKY9dXEvq-22" value="" style="image;aspect=fixed;perimeter=ellipsePerimeter;html=1;align=center;shadow=0;dashed=0;spacingTop=3;image=img/lib/active_directory/database.svg;" parent="FqdjsurXtCNkKY9dXEvq-21" vertex="1">
          <mxGeometry x="49.5" y="39" width="50" height="37" as="geometry" />
        </mxCell>
        <mxCell id="FqdjsurXtCNkKY9dXEvq-23" value="Availability Zone" style="fillColor=none;strokeColor=#147EBA;dashed=1;verticalAlign=top;fontStyle=0;fontColor=#147EBA;whiteSpace=wrap;html=1;movable=1;resizable=1;rotatable=1;deletable=1;editable=1;locked=0;connectable=1;" parent="1" vertex="1">
          <mxGeometry x="1250.54" y="391" width="200" height="400" as="geometry" />
        </mxCell>
        <mxCell id="FqdjsurXtCNkKY9dXEvq-24" value="Private subnet" style="points=[[0,0],[0.25,0],[0.5,0],[0.75,0],[1,0],[1,0.25],[1,0.5],[1,0.75],[1,1],[0.75,1],[0.5,1],[0.25,1],[0,1],[0,0.75],[0,0.5],[0,0.25]];outlineConnect=0;gradientColor=none;html=1;whiteSpace=wrap;fontSize=12;fontStyle=0;container=1;pointerEvents=0;collapsible=0;recursiveResize=0;shape=mxgraph.aws4.group;grIcon=mxgraph.aws4.group_security_group;grStroke=0;strokeColor=#00A4A6;fillColor=#E6F6F7;verticalAlign=top;align=left;spacingLeft=30;fontColor=#147EBA;dashed=0;" parent="1" vertex="1">
          <mxGeometry x="1270.54" y="621" width="149" height="150" as="geometry" />
        </mxCell>
        <mxCell id="FqdjsurXtCNkKY9dXEvq-25" value="" style="image;aspect=fixed;perimeter=ellipsePerimeter;html=1;align=center;shadow=0;dashed=0;spacingTop=3;image=img/lib/active_directory/database.svg;" parent="1" vertex="1">
          <mxGeometry x="1320.04" y="670" width="50" height="37" as="geometry" />
        </mxCell>
        <mxCell id="FqdjsurXtCNkKY9dXEvq-26" value="Public subnet" style="points=[[0,0],[0.25,0],[0.5,0],[0.75,0],[1,0],[1,0.25],[1,0.5],[1,0.75],[1,1],[0.75,1],[0.5,1],[0.25,1],[0,1],[0,0.75],[0,0.5],[0,0.25]];outlineConnect=0;gradientColor=none;html=1;whiteSpace=wrap;fontSize=12;fontStyle=0;container=1;pointerEvents=0;collapsible=0;recursiveResize=0;shape=mxgraph.aws4.group;grIcon=mxgraph.aws4.group_security_group;grStroke=0;strokeColor=#7AA116;fillColor=#F2F6E8;verticalAlign=top;align=left;spacingLeft=30;fontColor=#248814;dashed=0;" parent="1" vertex="1">
          <mxGeometry x="1270.54" y="430" width="150" height="160" as="geometry" />
        </mxCell>
        <mxCell id="FqdjsurXtCNkKY9dXEvq-27" value="" style="image;aspect=fixed;html=1;points=[];align=center;fontSize=12;image=img/lib/azure2/compute/Azure_Spring_Cloud.svg;" parent="1" vertex="1">
          <mxGeometry x="1311.04" y="470" width="68" height="68" as="geometry" />
        </mxCell>
        <mxCell id="FqdjsurXtCNkKY9dXEvq-28" value="" style="aspect=fixed;pointerEvents=1;shadow=0;dashed=0;html=1;strokeColor=none;labelPosition=center;verticalLabelPosition=bottom;verticalAlign=top;align=center;fillColor=#00188D;shape=mxgraph.mscae.enterprise.application;" parent="1" vertex="1">
          <mxGeometry x="1110.54" y="520" width="50" height="34" as="geometry" />
        </mxCell>
        <mxCell id="FqdjsurXtCNkKY9dXEvq-29" value="Region" style="shape=mxgraph.ibm.box;prType=region;fontStyle=0;verticalAlign=top;align=left;spacingLeft=32;spacingTop=4;fillColor=none;rounded=0;whiteSpace=wrap;html=1;strokeColor=#919191;strokeWidth=2;dashed=0;container=0;spacing=-4;collapsible=0;expand=0;recursiveResize=0;movable=1;resizable=1;rotatable=1;deletable=1;editable=1;locked=0;connectable=1;" parent="1" vertex="1">
          <mxGeometry x="190" y="230" width="630" height="639" as="geometry" />
        </mxCell>
        <mxCell id="FqdjsurXtCNkKY9dXEvq-33" value="PROD-ENV" style="text;html=1;align=center;verticalAlign=middle;whiteSpace=wrap;rounded=0;fontFamily=Helvetica;fontSize=12;fontStyle=0;resizable=1;fillColor=#f5f5f5;strokeColor=#666666;fontColor=#333333;" parent="1" vertex="1">
          <mxGeometry x="679" y="350" width="70" height="30" as="geometry" />
        </mxCell>
        <mxCell id="FqdjsurXtCNkKY9dXEvq-34" value="DEV-ENV" style="text;html=1;align=center;verticalAlign=middle;whiteSpace=wrap;rounded=0;fontFamily=Helvetica;fontSize=12;fontStyle=0;resizable=1;fillColor=#f5f5f5;strokeColor=#666666;fontColor=#333333;" parent="1" vertex="1">
          <mxGeometry x="1419.54" y="350" width="70" height="30" as="geometry" />
        </mxCell>
        <mxCell id="FqdjsurXtCNkKY9dXEvq-35" value="" style="outlineConnect=0;fontColor=#232F3E;gradientColor=none;fillColor=#8C4FFF;strokeColor=none;dashed=0;verticalLabelPosition=bottom;verticalAlign=top;align=center;html=1;fontSize=12;fontStyle=0;aspect=fixed;pointerEvents=1;shape=mxgraph.aws4.internet_gateway;rounded=0;strokeWidth=2;spacingLeft=32;spacingTop=4;spacing=-4;fontFamily=Helvetica;resizable=1;" parent="1" vertex="1">
          <mxGeometry x="460" y="330" width="48" height="48" as="geometry" />
        </mxCell>
        <mxCell id="FqdjsurXtCNkKY9dXEvq-36" value="" style="outlineConnect=0;fontColor=#232F3E;gradientColor=none;fillColor=#8C4FFF;strokeColor=none;dashed=0;verticalLabelPosition=bottom;verticalAlign=top;align=center;html=1;fontSize=12;fontStyle=0;aspect=fixed;pointerEvents=1;shape=mxgraph.aws4.internet_gateway;rounded=0;strokeWidth=2;spacingLeft=32;spacingTop=4;spacing=-4;fontFamily=Helvetica;resizable=1;" parent="1" vertex="1">
          <mxGeometry x="1209.54" y="330" width="48" height="48" as="geometry" />
        </mxCell>
        <mxCell id="FqdjsurXtCNkKY9dXEvq-37" value="NAT gateway" style="outlineConnect=0;fontColor=#232F3E;gradientColor=none;strokeColor=#232F3E;fillColor=#ffffff;dashed=0;verticalLabelPosition=bottom;verticalAlign=top;align=center;html=1;fontSize=12;fontStyle=0;aspect=fixed;shape=mxgraph.aws4.resourceIcon;resIcon=mxgraph.aws4.nat_gateway;rounded=0;strokeWidth=2;spacingLeft=32;spacingTop=4;spacing=-4;fontFamily=Helvetica;resizable=1;" parent="1" vertex="1">
          <mxGeometry x="1030.54" y="560" width="30" height="30" as="geometry" />
        </mxCell>
        <mxCell id="FqdjsurXtCNkKY9dXEvq-38" value="NAT gateway" style="outlineConnect=0;fontColor=#232F3E;gradientColor=none;strokeColor=#232F3E;fillColor=#ffffff;dashed=0;verticalLabelPosition=bottom;verticalAlign=top;align=center;html=1;fontSize=12;fontStyle=0;aspect=fixed;shape=mxgraph.aws4.resourceIcon;resIcon=mxgraph.aws4.nat_gateway;rounded=0;strokeWidth=2;spacingLeft=32;spacingTop=4;spacing=-4;fontFamily=Helvetica;resizable=1;" parent="1" vertex="1">
          <mxGeometry x="290" y="560" width="30" height="30" as="geometry" />
        </mxCell>
        <mxCell id="FqdjsurXtCNkKY9dXEvq-39" value="NAT gateway" style="outlineConnect=0;fontColor=#232F3E;gradientColor=none;strokeColor=#232F3E;fillColor=#ffffff;dashed=0;verticalLabelPosition=bottom;verticalAlign=top;align=center;html=1;fontSize=12;fontStyle=0;aspect=fixed;shape=mxgraph.aws4.resourceIcon;resIcon=mxgraph.aws4.nat_gateway;rounded=0;strokeWidth=2;spacingLeft=32;spacingTop=4;spacing=-4;fontFamily=Helvetica;resizable=1;" parent="1" vertex="1">
          <mxGeometry x="530" y="560" width="30" height="30" as="geometry" />
        </mxCell>
        <mxCell id="FqdjsurXtCNkKY9dXEvq-40" value="NAT gateway" style="outlineConnect=0;fontColor=#232F3E;gradientColor=none;strokeColor=#232F3E;fillColor=#ffffff;dashed=0;verticalLabelPosition=bottom;verticalAlign=top;align=center;html=1;fontSize=12;fontStyle=0;aspect=fixed;shape=mxgraph.aws4.resourceIcon;resIcon=mxgraph.aws4.nat_gateway;rounded=0;strokeWidth=2;spacingLeft=32;spacingTop=4;spacing=-4;fontFamily=Helvetica;resizable=1;" parent="1" vertex="1">
          <mxGeometry x="1270.54" y="560" width="30" height="30" as="geometry" />
        </mxCell>
        <mxCell id="FqdjsurXtCNkKY9dXEvq-41" value="" style="outlineConnect=0;fontColor=#232F3E;gradientColor=none;fillColor=#8C4FFF;strokeColor=none;dashed=0;verticalLabelPosition=bottom;verticalAlign=top;align=center;html=1;fontSize=12;fontStyle=0;aspect=fixed;pointerEvents=1;shape=mxgraph.aws4.nat_gateway;rounded=0;strokeWidth=2;spacingLeft=32;spacingTop=4;spacing=-4;fontFamily=Helvetica;resizable=1;" parent="1" vertex="1">
          <mxGeometry x="269" y="1110" width="78" height="78" as="geometry" />
        </mxCell>
        <mxCell id="FqdjsurXtCNkKY9dXEvq-42" value="NAT" style="whiteSpace=wrap;html=1;shape=mxgraph.basic.document;rounded=0;dashed=0;strokeColor=#919191;strokeWidth=2;align=left;verticalAlign=top;spacingLeft=32;spacingTop=4;spacing=-4;fontFamily=Helvetica;fontSize=12;fontColor=default;fontStyle=0;resizable=1;fillColor=none;" parent="1" vertex="1">
          <mxGeometry x="269" y="1110" width="441" height="220" as="geometry" />
        </mxCell>
        <mxCell id="FqdjsurXtCNkKY9dXEvq-43" value="" style="shape=table;startSize=0;container=1;collapsible=0;childLayout=tableLayout;fontSize=16;rounded=0;dashed=0;strokeColor=#919191;strokeWidth=2;align=left;verticalAlign=top;spacingLeft=32;spacingTop=4;spacing=-4;fontFamily=Helvetica;fontColor=default;fontStyle=0;resizable=1;fillColor=none;" parent="1" vertex="1">
          <mxGeometry x="380" y="1150" width="290" height="130" as="geometry" />
        </mxCell>
        <mxCell id="FqdjsurXtCNkKY9dXEvq-44" value="" style="shape=tableRow;horizontal=0;startSize=0;swimlaneHead=0;swimlaneBody=0;strokeColor=inherit;top=0;left=0;bottom=0;right=0;collapsible=0;dropTarget=0;fillColor=none;points=[[0,0.5],[1,0.5]];portConstraint=eastwest;fontSize=16;rounded=0;dashed=0;strokeWidth=2;align=left;verticalAlign=top;spacingLeft=32;spacingTop=4;spacing=-4;fontFamily=Helvetica;fontColor=default;fontStyle=0;resizable=1;" parent="FqdjsurXtCNkKY9dXEvq-43" vertex="1">
          <mxGeometry width="290" height="50" as="geometry" />
        </mxCell>
        <mxCell id="FqdjsurXtCNkKY9dXEvq-45" value="" style="shape=partialRectangle;html=1;whiteSpace=wrap;connectable=0;strokeColor=inherit;overflow=hidden;fillColor=none;top=0;left=0;bottom=0;right=0;pointerEvents=1;fontSize=16;rounded=0;dashed=0;strokeWidth=2;align=left;verticalAlign=top;spacingLeft=32;spacingTop=4;spacing=-4;fontFamily=Helvetica;fontColor=default;fontStyle=0;resizable=1;" parent="FqdjsurXtCNkKY9dXEvq-44" vertex="1">
          <mxGeometry width="20" height="50" as="geometry">
            <mxRectangle width="20" height="50" as="alternateBounds" />
          </mxGeometry>
        </mxCell>
        <mxCell id="FqdjsurXtCNkKY9dXEvq-46" value="&lt;br&gt;10.1.0.0/24&lt;div&gt;&lt;br/&gt;&lt;/div&gt;" style="shape=partialRectangle;html=1;whiteSpace=wrap;connectable=0;strokeColor=inherit;overflow=hidden;fillColor=none;top=0;left=0;bottom=0;right=0;pointerEvents=1;fontSize=16;rounded=0;dashed=0;strokeWidth=2;align=left;verticalAlign=top;spacingLeft=32;spacingTop=4;spacing=-4;fontFamily=Helvetica;fontColor=default;fontStyle=0;resizable=1;" parent="FqdjsurXtCNkKY9dXEvq-44" vertex="1">
          <mxGeometry x="20" width="250" height="50" as="geometry">
            <mxRectangle width="250" height="50" as="alternateBounds" />
          </mxGeometry>
        </mxCell>
        <mxCell id="FqdjsurXtCNkKY9dXEvq-47" value="" style="shape=partialRectangle;html=1;whiteSpace=wrap;connectable=0;strokeColor=inherit;overflow=hidden;fillColor=none;top=0;left=0;bottom=0;right=0;pointerEvents=1;fontSize=16;rounded=0;dashed=0;strokeWidth=2;align=left;verticalAlign=top;spacingLeft=32;spacingTop=4;spacing=-4;fontFamily=Helvetica;fontColor=default;fontStyle=0;resizable=1;" parent="FqdjsurXtCNkKY9dXEvq-44" vertex="1">
          <mxGeometry x="270" width="20" height="50" as="geometry">
            <mxRectangle width="20" height="50" as="alternateBounds" />
          </mxGeometry>
        </mxCell>
        <mxCell id="FqdjsurXtCNkKY9dXEvq-48" value="" style="shape=tableRow;horizontal=0;startSize=0;swimlaneHead=0;swimlaneBody=0;strokeColor=inherit;top=0;left=0;bottom=0;right=0;collapsible=0;dropTarget=0;fillColor=none;points=[[0,0.5],[1,0.5]];portConstraint=eastwest;fontSize=16;rounded=0;dashed=0;strokeWidth=2;align=left;verticalAlign=top;spacingLeft=32;spacingTop=4;spacing=-4;fontFamily=Helvetica;fontColor=default;fontStyle=0;resizable=1;" parent="FqdjsurXtCNkKY9dXEvq-43" vertex="1">
          <mxGeometry y="50" width="290" height="40" as="geometry" />
        </mxCell>
        <mxCell id="FqdjsurXtCNkKY9dXEvq-49" value="" style="shape=partialRectangle;html=1;whiteSpace=wrap;connectable=0;strokeColor=inherit;overflow=hidden;fillColor=none;top=0;left=0;bottom=0;right=0;pointerEvents=1;fontSize=16;rounded=0;dashed=0;strokeWidth=2;align=left;verticalAlign=top;spacingLeft=32;spacingTop=4;spacing=-4;fontFamily=Helvetica;fontColor=default;fontStyle=0;resizable=1;" parent="FqdjsurXtCNkKY9dXEvq-48" vertex="1">
          <mxGeometry width="20" height="40" as="geometry">
            <mxRectangle width="20" height="40" as="alternateBounds" />
          </mxGeometry>
        </mxCell>
        <mxCell id="FqdjsurXtCNkKY9dXEvq-50" value="10.1.0.0/24" style="shape=partialRectangle;html=1;whiteSpace=wrap;connectable=0;strokeColor=inherit;overflow=hidden;fillColor=none;top=0;left=0;bottom=0;right=0;pointerEvents=1;fontSize=16;rounded=0;dashed=0;strokeWidth=2;align=left;verticalAlign=top;spacingLeft=32;spacingTop=4;spacing=-4;fontFamily=Helvetica;fontColor=default;fontStyle=0;resizable=1;" parent="FqdjsurXtCNkKY9dXEvq-48" vertex="1">
          <mxGeometry x="20" width="250" height="40" as="geometry">
            <mxRectangle width="250" height="40" as="alternateBounds" />
          </mxGeometry>
        </mxCell>
        <mxCell id="FqdjsurXtCNkKY9dXEvq-51" value="" style="shape=partialRectangle;html=1;whiteSpace=wrap;connectable=0;strokeColor=inherit;overflow=hidden;fillColor=none;top=0;left=0;bottom=0;right=0;pointerEvents=1;fontSize=16;rounded=0;dashed=0;strokeWidth=2;align=left;verticalAlign=top;spacingLeft=32;spacingTop=4;spacing=-4;fontFamily=Helvetica;fontColor=default;fontStyle=0;resizable=1;" parent="FqdjsurXtCNkKY9dXEvq-48" vertex="1">
          <mxGeometry x="270" width="20" height="40" as="geometry">
            <mxRectangle width="20" height="40" as="alternateBounds" />
          </mxGeometry>
        </mxCell>
        <mxCell id="FqdjsurXtCNkKY9dXEvq-52" value="" style="shape=tableRow;horizontal=0;startSize=0;swimlaneHead=0;swimlaneBody=0;strokeColor=inherit;top=0;left=0;bottom=0;right=0;collapsible=0;dropTarget=0;fillColor=none;points=[[0,0.5],[1,0.5]];portConstraint=eastwest;fontSize=16;rounded=0;dashed=0;strokeWidth=2;align=left;verticalAlign=top;spacingLeft=32;spacingTop=4;spacing=-4;fontFamily=Helvetica;fontColor=default;fontStyle=0;resizable=1;" parent="FqdjsurXtCNkKY9dXEvq-43" vertex="1">
          <mxGeometry y="90" width="290" height="40" as="geometry" />
        </mxCell>
        <mxCell id="FqdjsurXtCNkKY9dXEvq-53" value="" style="shape=partialRectangle;html=1;whiteSpace=wrap;connectable=0;strokeColor=inherit;overflow=hidden;fillColor=none;top=0;left=0;bottom=0;right=0;pointerEvents=1;fontSize=16;rounded=0;dashed=0;strokeWidth=2;align=left;verticalAlign=top;spacingLeft=32;spacingTop=4;spacing=-4;fontFamily=Helvetica;fontColor=default;fontStyle=0;resizable=1;" parent="FqdjsurXtCNkKY9dXEvq-52" vertex="1">
          <mxGeometry width="20" height="40" as="geometry">
            <mxRectangle width="20" height="40" as="alternateBounds" />
          </mxGeometry>
        </mxCell>
        <mxCell id="FqdjsurXtCNkKY9dXEvq-54" value="10.1.0.0/24" style="shape=partialRectangle;html=1;whiteSpace=wrap;connectable=0;strokeColor=inherit;overflow=hidden;fillColor=none;top=0;left=0;bottom=0;right=0;pointerEvents=1;fontSize=16;rounded=0;dashed=0;strokeWidth=2;align=left;verticalAlign=top;spacingLeft=32;spacingTop=4;spacing=-4;fontFamily=Helvetica;fontColor=default;fontStyle=0;resizable=1;" parent="FqdjsurXtCNkKY9dXEvq-52" vertex="1">
          <mxGeometry x="20" width="250" height="40" as="geometry">
            <mxRectangle width="250" height="40" as="alternateBounds" />
          </mxGeometry>
        </mxCell>
        <mxCell id="FqdjsurXtCNkKY9dXEvq-55" value="" style="shape=partialRectangle;html=1;whiteSpace=wrap;connectable=0;strokeColor=inherit;overflow=hidden;fillColor=none;top=0;left=0;bottom=0;right=0;pointerEvents=1;fontSize=16;rounded=0;dashed=0;strokeWidth=2;align=left;verticalAlign=top;spacingLeft=32;spacingTop=4;spacing=-4;fontFamily=Helvetica;fontColor=default;fontStyle=0;resizable=1;" parent="FqdjsurXtCNkKY9dXEvq-52" vertex="1">
          <mxGeometry x="270" width="20" height="40" as="geometry">
            <mxRectangle width="20" height="40" as="alternateBounds" />
          </mxGeometry>
        </mxCell>
        <mxCell id="FqdjsurXtCNkKY9dXEvq-56" value="Private Subnets in Route Table" style="text;html=1;align=center;verticalAlign=middle;whiteSpace=wrap;rounded=0;fontFamily=Helvetica;fontSize=12;fontStyle=0;resizable=1;fillColor=#fff2cc;strokeColor=#d6b656;" parent="1" vertex="1">
          <mxGeometry x="360" y="1110" width="200" height="30" as="geometry" />
        </mxCell>
        <mxCell id="FqdjsurXtCNkKY9dXEvq-57" value="Availability zone" style="outlineConnect=0;gradientColor=none;html=1;whiteSpace=wrap;fontSize=12;fontStyle=0;shape=mxgraph.aws4.group;grIcon=mxgraph.aws4.group_availability_zone;strokeColor=#545B64;fillColor=none;verticalAlign=top;align=left;spacingLeft=30;fontColor=#545B64;dashed=1;rounded=0;strokeWidth=2;spacingTop=4;spacing=-4;fontFamily=Helvetica;resizable=1;" parent="1" vertex="1">
          <mxGeometry x="230" y="1070" width="520" height="290" as="geometry" />
        </mxCell>
        <mxCell id="FqdjsurXtCNkKY9dXEvq-58" value="" style="outlineConnect=0;fontColor=#232F3E;gradientColor=none;fillColor=#8C4FFF;strokeColor=none;dashed=0;verticalLabelPosition=bottom;verticalAlign=top;align=center;html=1;fontSize=12;fontStyle=0;aspect=fixed;pointerEvents=1;shape=mxgraph.aws4.nat_gateway;rounded=0;strokeWidth=2;spacingLeft=32;spacingTop=4;spacing=-4;fontFamily=Helvetica;resizable=1;" parent="1" vertex="1">
          <mxGeometry x="829" y="1110" width="78" height="78" as="geometry" />
        </mxCell>
        <mxCell id="FqdjsurXtCNkKY9dXEvq-59" value="NAT" style="whiteSpace=wrap;html=1;shape=mxgraph.basic.document;rounded=0;dashed=0;strokeColor=#919191;strokeWidth=2;align=left;verticalAlign=top;spacingLeft=32;spacingTop=4;spacing=-4;fontFamily=Helvetica;fontSize=12;fontColor=default;fontStyle=0;resizable=1;fillColor=none;" parent="1" vertex="1">
          <mxGeometry x="829" y="1110" width="441" height="220" as="geometry" />
        </mxCell>
        <mxCell id="FqdjsurXtCNkKY9dXEvq-60" value="" style="shape=table;startSize=0;container=1;collapsible=0;childLayout=tableLayout;fontSize=16;rounded=0;dashed=0;strokeColor=#919191;strokeWidth=2;align=left;verticalAlign=top;spacingLeft=32;spacingTop=4;spacing=-4;fontFamily=Helvetica;fontColor=default;fontStyle=0;resizable=1;fillColor=none;" parent="1" vertex="1">
          <mxGeometry x="940" y="1150" width="290" height="130" as="geometry" />
        </mxCell>
        <mxCell id="FqdjsurXtCNkKY9dXEvq-61" value="" style="shape=tableRow;horizontal=0;startSize=0;swimlaneHead=0;swimlaneBody=0;strokeColor=inherit;top=0;left=0;bottom=0;right=0;collapsible=0;dropTarget=0;fillColor=none;points=[[0,0.5],[1,0.5]];portConstraint=eastwest;fontSize=16;rounded=0;dashed=0;strokeWidth=2;align=left;verticalAlign=top;spacingLeft=32;spacingTop=4;spacing=-4;fontFamily=Helvetica;fontColor=default;fontStyle=0;resizable=1;" parent="FqdjsurXtCNkKY9dXEvq-60" vertex="1">
          <mxGeometry width="290" height="50" as="geometry" />
        </mxCell>
        <mxCell id="FqdjsurXtCNkKY9dXEvq-62" value="" style="shape=partialRectangle;html=1;whiteSpace=wrap;connectable=0;strokeColor=inherit;overflow=hidden;fillColor=none;top=0;left=0;bottom=0;right=0;pointerEvents=1;fontSize=16;rounded=0;dashed=0;strokeWidth=2;align=left;verticalAlign=top;spacingLeft=32;spacingTop=4;spacing=-4;fontFamily=Helvetica;fontColor=default;fontStyle=0;resizable=1;" parent="FqdjsurXtCNkKY9dXEvq-61" vertex="1">
          <mxGeometry width="20" height="50" as="geometry">
            <mxRectangle width="20" height="50" as="alternateBounds" />
          </mxGeometry>
        </mxCell>
        <mxCell id="FqdjsurXtCNkKY9dXEvq-63" value="&lt;br&gt;10.1.0.0/24&lt;div&gt;&lt;br/&gt;&lt;/div&gt;" style="shape=partialRectangle;html=1;whiteSpace=wrap;connectable=0;strokeColor=inherit;overflow=hidden;fillColor=none;top=0;left=0;bottom=0;right=0;pointerEvents=1;fontSize=16;rounded=0;dashed=0;strokeWidth=2;align=left;verticalAlign=top;spacingLeft=32;spacingTop=4;spacing=-4;fontFamily=Helvetica;fontColor=default;fontStyle=0;resizable=1;" parent="FqdjsurXtCNkKY9dXEvq-61" vertex="1">
          <mxGeometry x="20" width="250" height="50" as="geometry">
            <mxRectangle width="250" height="50" as="alternateBounds" />
          </mxGeometry>
        </mxCell>
        <mxCell id="FqdjsurXtCNkKY9dXEvq-64" value="" style="shape=partialRectangle;html=1;whiteSpace=wrap;connectable=0;strokeColor=inherit;overflow=hidden;fillColor=none;top=0;left=0;bottom=0;right=0;pointerEvents=1;fontSize=16;rounded=0;dashed=0;strokeWidth=2;align=left;verticalAlign=top;spacingLeft=32;spacingTop=4;spacing=-4;fontFamily=Helvetica;fontColor=default;fontStyle=0;resizable=1;" parent="FqdjsurXtCNkKY9dXEvq-61" vertex="1">
          <mxGeometry x="270" width="20" height="50" as="geometry">
            <mxRectangle width="20" height="50" as="alternateBounds" />
          </mxGeometry>
        </mxCell>
        <mxCell id="FqdjsurXtCNkKY9dXEvq-65" value="" style="shape=tableRow;horizontal=0;startSize=0;swimlaneHead=0;swimlaneBody=0;strokeColor=inherit;top=0;left=0;bottom=0;right=0;collapsible=0;dropTarget=0;fillColor=none;points=[[0,0.5],[1,0.5]];portConstraint=eastwest;fontSize=16;rounded=0;dashed=0;strokeWidth=2;align=left;verticalAlign=top;spacingLeft=32;spacingTop=4;spacing=-4;fontFamily=Helvetica;fontColor=default;fontStyle=0;resizable=1;" parent="FqdjsurXtCNkKY9dXEvq-60" vertex="1">
          <mxGeometry y="50" width="290" height="40" as="geometry" />
        </mxCell>
        <mxCell id="FqdjsurXtCNkKY9dXEvq-66" value="" style="shape=partialRectangle;html=1;whiteSpace=wrap;connectable=0;strokeColor=inherit;overflow=hidden;fillColor=none;top=0;left=0;bottom=0;right=0;pointerEvents=1;fontSize=16;rounded=0;dashed=0;strokeWidth=2;align=left;verticalAlign=top;spacingLeft=32;spacingTop=4;spacing=-4;fontFamily=Helvetica;fontColor=default;fontStyle=0;resizable=1;" parent="FqdjsurXtCNkKY9dXEvq-65" vertex="1">
          <mxGeometry width="20" height="40" as="geometry">
            <mxRectangle width="20" height="40" as="alternateBounds" />
          </mxGeometry>
        </mxCell>
        <mxCell id="FqdjsurXtCNkKY9dXEvq-67" value="10.1.0.0/24" style="shape=partialRectangle;html=1;whiteSpace=wrap;connectable=0;strokeColor=inherit;overflow=hidden;fillColor=none;top=0;left=0;bottom=0;right=0;pointerEvents=1;fontSize=16;rounded=0;dashed=0;strokeWidth=2;align=left;verticalAlign=top;spacingLeft=32;spacingTop=4;spacing=-4;fontFamily=Helvetica;fontColor=default;fontStyle=0;resizable=1;" parent="FqdjsurXtCNkKY9dXEvq-65" vertex="1">
          <mxGeometry x="20" width="250" height="40" as="geometry">
            <mxRectangle width="250" height="40" as="alternateBounds" />
          </mxGeometry>
        </mxCell>
        <mxCell id="FqdjsurXtCNkKY9dXEvq-68" value="" style="shape=partialRectangle;html=1;whiteSpace=wrap;connectable=0;strokeColor=inherit;overflow=hidden;fillColor=none;top=0;left=0;bottom=0;right=0;pointerEvents=1;fontSize=16;rounded=0;dashed=0;strokeWidth=2;align=left;verticalAlign=top;spacingLeft=32;spacingTop=4;spacing=-4;fontFamily=Helvetica;fontColor=default;fontStyle=0;resizable=1;" parent="FqdjsurXtCNkKY9dXEvq-65" vertex="1">
          <mxGeometry x="270" width="20" height="40" as="geometry">
            <mxRectangle width="20" height="40" as="alternateBounds" />
          </mxGeometry>
        </mxCell>
        <mxCell id="FqdjsurXtCNkKY9dXEvq-69" value="" style="shape=tableRow;horizontal=0;startSize=0;swimlaneHead=0;swimlaneBody=0;strokeColor=inherit;top=0;left=0;bottom=0;right=0;collapsible=0;dropTarget=0;fillColor=none;points=[[0,0.5],[1,0.5]];portConstraint=eastwest;fontSize=16;rounded=0;dashed=0;strokeWidth=2;align=left;verticalAlign=top;spacingLeft=32;spacingTop=4;spacing=-4;fontFamily=Helvetica;fontColor=default;fontStyle=0;resizable=1;" parent="FqdjsurXtCNkKY9dXEvq-60" vertex="1">
          <mxGeometry y="90" width="290" height="40" as="geometry" />
        </mxCell>
        <mxCell id="FqdjsurXtCNkKY9dXEvq-70" value="" style="shape=partialRectangle;html=1;whiteSpace=wrap;connectable=0;strokeColor=inherit;overflow=hidden;fillColor=none;top=0;left=0;bottom=0;right=0;pointerEvents=1;fontSize=16;rounded=0;dashed=0;strokeWidth=2;align=left;verticalAlign=top;spacingLeft=32;spacingTop=4;spacing=-4;fontFamily=Helvetica;fontColor=default;fontStyle=0;resizable=1;" parent="FqdjsurXtCNkKY9dXEvq-69" vertex="1">
          <mxGeometry width="20" height="40" as="geometry">
            <mxRectangle width="20" height="40" as="alternateBounds" />
          </mxGeometry>
        </mxCell>
        <mxCell id="FqdjsurXtCNkKY9dXEvq-71" value="10.1.0.0/24" style="shape=partialRectangle;html=1;whiteSpace=wrap;connectable=0;strokeColor=inherit;overflow=hidden;fillColor=none;top=0;left=0;bottom=0;right=0;pointerEvents=1;fontSize=16;rounded=0;dashed=0;strokeWidth=2;align=left;verticalAlign=top;spacingLeft=32;spacingTop=4;spacing=-4;fontFamily=Helvetica;fontColor=default;fontStyle=0;resizable=1;" parent="FqdjsurXtCNkKY9dXEvq-69" vertex="1">
          <mxGeometry x="20" width="250" height="40" as="geometry">
            <mxRectangle width="250" height="40" as="alternateBounds" />
          </mxGeometry>
        </mxCell>
        <mxCell id="FqdjsurXtCNkKY9dXEvq-72" value="" style="shape=partialRectangle;html=1;whiteSpace=wrap;connectable=0;strokeColor=inherit;overflow=hidden;fillColor=none;top=0;left=0;bottom=0;right=0;pointerEvents=1;fontSize=16;rounded=0;dashed=0;strokeWidth=2;align=left;verticalAlign=top;spacingLeft=32;spacingTop=4;spacing=-4;fontFamily=Helvetica;fontColor=default;fontStyle=0;resizable=1;" parent="FqdjsurXtCNkKY9dXEvq-69" vertex="1">
          <mxGeometry x="270" width="20" height="40" as="geometry">
            <mxRectangle width="20" height="40" as="alternateBounds" />
          </mxGeometry>
        </mxCell>
        <mxCell id="FqdjsurXtCNkKY9dXEvq-73" value="Private Subnets in Route Table" style="text;html=1;align=center;verticalAlign=middle;whiteSpace=wrap;rounded=0;fontFamily=Helvetica;fontSize=12;fontStyle=0;resizable=1;fillColor=#fff2cc;strokeColor=#d6b656;" parent="1" vertex="1">
          <mxGeometry x="920" y="1110" width="200" height="30" as="geometry" />
        </mxCell>
        <mxCell id="FqdjsurXtCNkKY9dXEvq-74" value="Availability zone" style="outlineConnect=0;gradientColor=none;html=1;whiteSpace=wrap;fontSize=12;fontStyle=0;shape=mxgraph.aws4.group;grIcon=mxgraph.aws4.group_availability_zone;strokeColor=#545B64;fillColor=none;verticalAlign=top;align=left;spacingLeft=30;fontColor=#545B64;dashed=1;rounded=0;strokeWidth=2;spacingTop=4;spacing=-4;fontFamily=Helvetica;resizable=1;" parent="1" vertex="1">
          <mxGeometry x="790" y="1070" width="520" height="290" as="geometry" />
        </mxCell>
        <mxCell id="FqdjsurXtCNkKY9dXEvq-75" value="Region" style="points=[[0,0],[0.25,0],[0.5,0],[0.75,0],[1,0],[1,0.25],[1,0.5],[1,0.75],[1,1],[0.75,1],[0.5,1],[0.25,1],[0,1],[0,0.75],[0,0.5],[0,0.25]];outlineConnect=0;gradientColor=none;html=1;whiteSpace=wrap;fontSize=12;fontStyle=0;container=1;pointerEvents=0;collapsible=0;recursiveResize=0;shape=mxgraph.aws4.group;grIcon=mxgraph.aws4.group_region;strokeColor=#0000FF;fillColor=none;verticalAlign=top;align=left;spacingLeft=30;fontColor=#147EBA;" parent="1" vertex="1">
          <mxGeometry x="190" y="1030" width="1160" height="360" as="geometry" />
        </mxCell>
        <mxCell id="FqdjsurXtCNkKY9dXEvq-76" value="" style="points=[];aspect=fixed;html=1;align=center;shadow=0;dashed=0;fillColor=#FF6A00;strokeColor=none;shape=mxgraph.alibaba_cloud.alb_application_load_balancer_02;" parent="1" vertex="1">
          <mxGeometry x="444.23" y="420" width="80" height="80" as="geometry" />
        </mxCell>
        <mxCell id="FqdjsurXtCNkKY9dXEvq-77" value="" style="points=[];aspect=fixed;html=1;align=center;shadow=0;dashed=0;fillColor=#FF6A00;strokeColor=none;shape=mxgraph.alibaba_cloud.alb_application_load_balancer_02;" parent="1" vertex="1">
          <mxGeometry x="1184.77" y="420" width="80" height="80" as="geometry" />
        </mxCell>
        <mxCell id="FqdjsurXtCNkKY9dXEvq-79" style="edgeStyle=orthogonalEdgeStyle;rounded=0;orthogonalLoop=1;jettySize=auto;html=1;entryX=0.497;entryY=0.025;entryDx=0;entryDy=0;entryPerimeter=0;" parent="1" source="FqdjsurXtCNkKY9dXEvq-35" target="FqdjsurXtCNkKY9dXEvq-76" edge="1">
          <mxGeometry relative="1" as="geometry" />
        </mxCell>
        <mxCell id="FqdjsurXtCNkKY9dXEvq-80" style="edgeStyle=orthogonalEdgeStyle;rounded=0;orthogonalLoop=1;jettySize=auto;html=1;entryX=0.613;entryY=0.113;entryDx=0;entryDy=0;entryPerimeter=0;" parent="1" source="FqdjsurXtCNkKY9dXEvq-36" target="FqdjsurXtCNkKY9dXEvq-77" edge="1">
          <mxGeometry relative="1" as="geometry" />
        </mxCell>
        <mxCell id="FqdjsurXtCNkKY9dXEvq-83" style="edgeStyle=orthogonalEdgeStyle;rounded=0;orthogonalLoop=1;jettySize=auto;html=1;" parent="1" source="FqdjsurXtCNkKY9dXEvq-81" target="FqdjsurXtCNkKY9dXEvq-35" edge="1">
          <mxGeometry relative="1" as="geometry" />
        </mxCell>
        <mxCell id="FqdjsurXtCNkKY9dXEvq-84" style="edgeStyle=orthogonalEdgeStyle;rounded=0;orthogonalLoop=1;jettySize=auto;html=1;jumpStyle=arc;" parent="1" source="FqdjsurXtCNkKY9dXEvq-81" target="FqdjsurXtCNkKY9dXEvq-36" edge="1">
          <mxGeometry relative="1" as="geometry" />
        </mxCell>
        <mxCell id="FqdjsurXtCNkKY9dXEvq-81" value="Amazon Cloudfront" style="sketch=0;outlineConnect=0;fontColor=#232F3E;gradientColor=none;strokeColor=#ffffff;fillColor=#232F3E;dashed=0;verticalLabelPosition=middle;verticalAlign=bottom;align=center;html=1;whiteSpace=wrap;fontSize=10;fontStyle=1;spacing=3;shape=mxgraph.aws4.productIcon;prIcon=mxgraph.aws4.cloudfront;" parent="1" vertex="1">
          <mxGeometry x="827" y="-30" width="80" height="110" as="geometry" />
        </mxCell>
        <mxCell id="FqdjsurXtCNkKY9dXEvq-85" value="Ganesh Surashe" style="points=[[0.35,0,0],[0.98,0.51,0],[1,0.71,0],[0.67,1,0],[0,0.795,0],[0,0.65,0]];verticalLabelPosition=bottom;sketch=0;html=1;verticalAlign=top;aspect=fixed;align=center;pointerEvents=1;shape=mxgraph.cisco19.user;fillColor=#005073;strokeColor=none;" parent="1" vertex="1">
          <mxGeometry x="327" y="-90" width="50" height="50" as="geometry" />
        </mxCell>
        <mxCell id="FqdjsurXtCNkKY9dXEvq-91" value="" style="edgeStyle=orthogonalEdgeStyle;rounded=0;orthogonalLoop=1;jettySize=auto;html=1;" parent="1" source="FqdjsurXtCNkKY9dXEvq-85" target="FqdjsurXtCNkKY9dXEvq-90" edge="1">
          <mxGeometry relative="1" as="geometry">
            <mxPoint x="360" y="75" as="sourcePoint" />
            <mxPoint x="850" y="110" as="targetPoint" />
          </mxGeometry>
        </mxCell>
        <mxCell id="FqdjsurXtCNkKY9dXEvq-93" style="edgeStyle=orthogonalEdgeStyle;rounded=0;orthogonalLoop=1;jettySize=auto;html=1;" parent="1" source="FqdjsurXtCNkKY9dXEvq-90" target="FqdjsurXtCNkKY9dXEvq-92" edge="1">
          <mxGeometry relative="1" as="geometry" />
        </mxCell>
        <mxCell id="FqdjsurXtCNkKY9dXEvq-90" value="www.eaglebird.in" style="text;html=1;align=center;verticalAlign=middle;whiteSpace=wrap;rounded=0;fillColor=#fff2cc;strokeColor=#d6b656;" parent="1" vertex="1">
          <mxGeometry x="525" y="-80" width="165" height="30" as="geometry" />
        </mxCell>
        <mxCell id="FqdjsurXtCNkKY9dXEvq-95" style="edgeStyle=orthogonalEdgeStyle;rounded=0;orthogonalLoop=1;jettySize=auto;html=1;" parent="1" source="FqdjsurXtCNkKY9dXEvq-92" target="FqdjsurXtCNkKY9dXEvq-81" edge="1">
          <mxGeometry relative="1" as="geometry" />
        </mxCell>
        <mxCell id="FqdjsurXtCNkKY9dXEvq-92" value="Route53" style="sketch=0;outlineConnect=0;fontColor=#232F3E;gradientColor=none;fillColor=#8C4FFF;strokeColor=none;dashed=0;verticalLabelPosition=bottom;verticalAlign=top;align=center;html=1;fontSize=12;fontStyle=0;aspect=fixed;pointerEvents=1;shape=mxgraph.aws4.route_53_resolver;" parent="1" vertex="1">
          <mxGeometry x="737" y="-82" width="34" height="34" as="geometry" />
        </mxCell>
        <mxCell id="FqdjsurXtCNkKY9dXEvq-97" style="edgeStyle=orthogonalEdgeStyle;rounded=0;orthogonalLoop=1;jettySize=auto;html=1;" parent="1" source="FqdjsurXtCNkKY9dXEvq-96" target="FqdjsurXtCNkKY9dXEvq-92" edge="1">
          <mxGeometry relative="1" as="geometry" />
        </mxCell>
        <mxCell id="FqdjsurXtCNkKY9dXEvq-98" value="" style="edgeStyle=orthogonalEdgeStyle;rounded=0;orthogonalLoop=1;jettySize=auto;html=1;" parent="1" source="FqdjsurXtCNkKY9dXEvq-96" target="FqdjsurXtCNkKY9dXEvq-92" edge="1">
          <mxGeometry relative="1" as="geometry" />
        </mxCell>
        <mxCell id="FqdjsurXtCNkKY9dXEvq-96" value="" style="sketch=0;points=[[0,0,0],[0.25,0,0],[0.5,0,0],[0.75,0,0],[1,0,0],[0,1,0],[0.25,1,0],[0.5,1,0],[0.75,1,0],[1,1,0],[0,0.25,0],[0,0.5,0],[0,0.75,0],[1,0.25,0],[1,0.5,0],[1,0.75,0]];outlineConnect=0;fontColor=#232F3E;fillColor=#DD344C;strokeColor=#ffffff;dashed=0;verticalLabelPosition=bottom;verticalAlign=top;align=center;html=1;fontSize=12;fontStyle=0;aspect=fixed;shape=mxgraph.aws4.resourceIcon;resIcon=mxgraph.aws4.certificate_manager_3;" parent="1" vertex="1">
          <mxGeometry x="734" y="-170" width="40" height="40" as="geometry" />
        </mxCell>
        <mxCell id="FqdjsurXtCNkKY9dXEvq-101" value="&lt;div&gt;If Resource&lt;/div&gt;" style="sketch=0;points=[[0,0,0],[0.25,0,0],[0.5,0,0],[0.75,0,0],[1,0,0],[0,1,0],[0.25,1,0],[0.5,1,0],[0.75,1,0],[1,1,0],[0,0.25,0],[0,0.5,0],[0,0.75,0],[1,0.25,0],[1,0.5,0],[1,0.75,0]];outlineConnect=0;fontColor=#232F3E;fillColor=#7AA116;strokeColor=#ffffff;dashed=0;verticalLabelPosition=bottom;verticalAlign=top;align=center;html=1;fontSize=12;fontStyle=0;aspect=fixed;shape=mxgraph.aws4.resourceIcon;resIcon=mxgraph.aws4.s3;" parent="1" vertex="1">
          <mxGeometry x="837" y="150" width="50" height="50" as="geometry" />
        </mxCell>
        <mxCell id="FqdjsurXtCNkKY9dXEvq-105" value="" style="endArrow=classic;html=1;rounded=0;entryX=0;entryY=0.25;entryDx=0;entryDy=0;entryPerimeter=0;" parent="1" target="FqdjsurXtCNkKY9dXEvq-101" edge="1">
          <mxGeometry width="50" height="50" relative="1" as="geometry">
            <mxPoint x="485" y="147" as="sourcePoint" />
            <mxPoint x="738" y="146" as="targetPoint" />
            <Array as="points" />
          </mxGeometry>
        </mxCell>
        <mxCell id="FqdjsurXtCNkKY9dXEvq-108" value="" style="endArrow=classic;html=1;rounded=0;entryX=1;entryY=0.25;entryDx=0;entryDy=0;entryPerimeter=0;" parent="1" target="FqdjsurXtCNkKY9dXEvq-101" edge="1">
          <mxGeometry width="50" height="50" relative="1" as="geometry">
            <mxPoint x="1230" y="150" as="sourcePoint" />
            <mxPoint x="760" y="250" as="targetPoint" />
          </mxGeometry>
        </mxCell>
      </root>
    </mxGraphModel>
  </diagram>
</mxfile>
